# This file uses meters as units for non-parametric coordinates.

mtllib exitSign.mtl
g default
v 751.965499 295.832460 1360.562616
v 757.301970 295.832460 1360.562616
v 751.965499 309.835263 1360.562616
v 757.301970 309.835263 1360.562616
v 751.965499 309.835263 1295.979820
v 757.301970 309.835263 1295.979820
v 751.965499 295.832460 1295.979820
v 757.301970 295.832460 1295.979820
v 751.965499 309.835261 1328.271218
v 751.965499 295.832458 1328.271218
v 757.301970 295.832458 1328.271218
v 757.301970 309.835261 1328.271218
vt 0.000009 0.767248
vt 0.252626 0.767268
vt 0.252618 0.876813
vt 0.000000 0.876793
vt 0.505244 0.767288
vt 0.505235 0.876833
vt 0.884026 0.986241
vt 0.884026 0.945601
vt 0.977743 0.945601
vt 0.977743 0.986241
vt 0.790308 0.945601
vt 0.790308 0.986241
vt 0.978863 0.281425
vt 0.978864 0.323173
vt 0.726246 0.323177
vt 0.726246 0.281429
vt 0.473629 0.323180
vt 0.473628 0.281433
vt 0.726246 0.323177
vt 0.726246 0.364924
vt 0.473629 0.364928
vt 0.473628 0.323180
vt 0.978863 0.323173
vt 0.978864 0.364920
vt 0.864603 0.427025
vt 0.864598 0.468773
vt 0.755053 0.468761
vt 0.755058 0.427013
vt 0.978081 0.427008
vt 0.978076 0.468755
vt 0.868532 0.468744
vt 0.868536 0.426996
vn 0.000000 0.000000 1.000000
vn 0.000000 0.000000 1.000000
vn 0.000000 0.000000 1.000000
vn 0.000000 0.000000 1.000000
vn 0.000000 1.000000 -0.000000
vn 0.000000 1.000000 -0.000000
vn 0.000000 1.000000 0.000000
vn 0.000000 1.000000 0.000000
vn 0.000000 0.000000 -1.000000
vn 0.000000 0.000000 -1.000000
vn 0.000000 0.000000 -1.000000
vn 0.000000 0.000000 -1.000000
vn 0.000000 -1.000000 0.000000
vn 0.000000 -1.000000 0.000000
vn 0.000000 -1.000000 0.000000
vn 0.000000 -1.000000 0.000000
vn 1.000000 0.000000 0.000000
vn 1.000000 0.000000 0.000000
vn 1.000000 0.000000 0.000000
vn 1.000000 0.000000 0.000000
vn -1.000000 0.000000 0.000000
vn -1.000000 0.000000 0.000000
vn -1.000000 0.000000 0.000000
vn -1.000000 0.000000 0.000000
vn -1.000000 0.000000 0.000000
vn -1.000000 0.000000 0.000000
vn 0.000000 -1.000000 -0.000000
vn 0.000000 -1.000000 -0.000000
vn 1.000000 0.000000 0.000000
vn 1.000000 0.000000 0.000000
vn 0.000000 1.000000 0.000000
vn 0.000000 1.000000 0.000000
s off
g pCube207 exitSign
usemtl pCube186SG
f 1/25/1 2/26/2 4/27/3 3/28/4
s 1
f 3/13/5 4/14/6 12/15/7 9/16/8
s off
f 5/29/9 6/30/10 8/31/11 7/32/12
s 2
f 10/19/13 11/20/14 2/21/15 1/22/16
s 3
f 2/1/17 11/2/18 12/3/19 4/4/20
s 4
f 9/7/21 10/8/22 1/9/23 3/10/24
f 7/11/25 10/8/22 9/7/21 5/12/26
s 2
f 7/23/27 8/24/28 11/20/14 10/19/13
s 3
f 12/3/19 11/2/18 8/5/29 6/6/30
s 1
f 9/16/8 12/15/7 6/17/31 5/18/32
g default
v 753.587915 265.158243 1359.609967
v 755.679555 265.158243 1359.609967
v 753.587915 299.015767 1359.609967
v 755.679555 299.015767 1359.609967
v 753.587915 299.015767 1296.932470
v 755.679555 299.015767 1296.932470
v 753.587915 265.158243 1296.932470
v 755.679555 265.158243 1296.932470
v 753.587915 299.015762 1328.271218
v 753.587915 265.158238 1328.271218
v 755.679555 265.158238 1328.271218
v 755.679555 299.015762 1328.271218
vt 0.000045 0.000000
vt 0.245210 0.000042
vt 0.245165 0.264912
vt 0.000000 0.264870
vt 0.490375 0.000084
vt 0.490330 0.264953
vt 0.883436 0.937145
vt 0.883436 0.845922
vt 0.967873 0.845922
vt 0.967873 0.937145
vt 0.798999 0.845922
vt 0.798999 0.937145
vt 0.977575 0.381284
vt 0.977578 0.397647
vt 0.732413 0.397684
vt 0.732410 0.381321
vt 0.487248 0.397721
vt 0.487245 0.381358
vt 0.732410 0.364957
vt 0.732413 0.381321
vt 0.487248 0.381357
vt 0.487245 0.364994
vt 0.977575 0.364921
vt 0.977578 0.381284
vt 0.752115 0.427014
vt 0.752118 0.443377
vt 0.487248 0.443423
vt 0.487245 0.427060
vt 0.752115 0.443378
vt 0.752118 0.459741
vt 0.487248 0.459786
vt 0.487245 0.443423
vn 0.000000 0.000000 1.000000
vn 0.000000 0.000000 1.000000
vn 0.000000 0.000000 1.000000
vn 0.000000 0.000000 1.000000
vn 0.000000 1.000000 -0.000000
vn 0.000000 1.000000 -0.000000
vn 0.000000 1.000000 0.000000
vn 0.000000 1.000000 0.000000
vn 0.000000 0.000000 -1.000000
vn 0.000000 0.000000 -1.000000
vn 0.000000 0.000000 -1.000000
vn 0.000000 0.000000 -1.000000
vn 0.000000 -1.000000 0.000000
vn 0.000000 -1.000000 0.000000
vn 0.000000 -1.000000 0.000000
vn 0.000000 -1.000000 0.000000
vn 1.000000 0.000000 0.000000
vn 1.000000 0.000000 0.000000
vn 1.000000 0.000000 0.000000
vn 1.000000 0.000000 0.000000
vn -1.000000 0.000000 0.000000
vn -1.000000 0.000000 0.000000
vn -1.000000 0.000000 0.000000
vn -1.000000 0.000000 0.000000
vn -1.000000 0.000000 0.000000
vn -1.000000 0.000000 0.000000
vn 0.000000 -1.000000 -0.000000
vn 0.000000 -1.000000 -0.000000
vn 1.000000 0.000000 0.000000
vn 1.000000 0.000000 0.000000
vn 0.000000 1.000000 0.000000
vn 0.000000 1.000000 0.000000
s off
g exitSign pCube208
usemtl pCube186SG
f 13/57/33 14/58/34 16/59/35 15/60/36
s 1
f 15/45/37 16/46/38 24/47/39 21/48/40
s off
f 17/61/41 18/62/42 20/63/43 19/64/44
s 2
f 22/51/45 23/52/46 14/53/47 13/54/48
s 3
f 14/33/49 23/34/50 24/35/51 16/36/52
s 4
f 21/39/53 22/40/54 13/41/55 15/42/56
f 19/43/57 22/40/54 21/39/53 17/44/58
s 2
f 19/55/59 20/56/60 23/52/46 22/51/45
s 3
f 24/35/51 23/34/50 20/37/61 18/38/62
s 1
f 21/48/40 24/47/39 18/49/63 17/50/64
g default
v 754.646201 266.914392 1356.358962
v 756.520859 266.914392 1356.358962
v 754.646201 297.259619 1356.358962
v 756.520859 297.259619 1356.358962
v 754.646201 297.259619 1300.183475
v 756.520859 297.259619 1300.183475
v 754.646201 266.914392 1300.183475
v 756.520859 266.914392 1300.183475
v 754.646201 297.259614 1328.271218
v 754.646201 266.914387 1328.271218
v 756.520859 266.914387 1328.271218
v 756.520859 297.259614 1328.271218
vt 0.007358 0.516097
vt 0.227090 0.516134
vt 0.227049 0.753527
vt 0.007317 0.753489
vt 0.446822 0.516172
vt 0.446782 0.753565
vt 0.915289 0.838114
vt 0.915289 0.783695
vt 0.965660 0.783695
vt 0.965660 0.838114
vt 0.864919 0.783695
vt 0.864919 0.838114
vt 0.976640 0.412314
vt 0.976642 0.426980
vt 0.756910 0.427013
vt 0.756908 0.412347
vt 0.537178 0.427046
vt 0.537176 0.412381
vt 0.756908 0.397681
vt 0.756910 0.412347
vt 0.537178 0.412380
vt 0.537176 0.397714
vt 0.976640 0.397648
vt 0.976642 0.412314
vt 0.751873 0.459742
vt 0.751875 0.474408
vt 0.514483 0.474448
vt 0.514480 0.459783
vt 0.978829 0.474370
vt 0.978831 0.489035
vt 0.741439 0.489076
vt 0.741436 0.474410
vn 0.000000 0.000000 1.000000
vn 0.000000 0.000000 1.000000
vn 0.000000 0.000000 1.000000
vn 0.000000 0.000000 1.000000
vn 0.000000 1.000000 -0.000000
vn 0.000000 1.000000 -0.000000
vn 0.000000 1.000000 0.000000
vn 0.000000 1.000000 0.000000
vn 0.000000 0.000000 -1.000000
vn 0.000000 0.000000 -1.000000
vn 0.000000 0.000000 -1.000000
vn 0.000000 0.000000 -1.000000
vn 0.000000 -1.000000 0.000000
vn 0.000000 -1.000000 0.000000
vn 0.000000 -1.000000 0.000000
vn 0.000000 -1.000000 0.000000
vn 1.000000 0.000000 0.000000
vn 1.000000 0.000000 0.000000
vn 1.000000 0.000000 0.000000
vn 1.000000 0.000000 0.000000
vn -1.000000 0.000000 0.000000
vn -1.000000 0.000000 0.000000
vn -1.000000 0.000000 0.000000
vn -1.000000 0.000000 0.000000
vn -1.000000 0.000000 0.000000
vn -1.000000 0.000000 0.000000
vn 0.000000 -1.000000 -0.000000
vn 0.000000 -1.000000 -0.000000
vn 1.000000 0.000000 0.000000
vn 1.000000 0.000000 0.000000
vn 0.000000 1.000000 0.000000
vn 0.000000 1.000000 0.000000
s off
g exitSign pCube209
usemtl pCube186SG
f 25/89/65 26/90/66 28/91/67 27/92/68
s 1
f 27/77/69 28/78/70 36/79/71 33/80/72
s off
f 29/93/73 30/94/74 32/95/75 31/96/76
s 2
f 34/83/77 35/84/78 26/85/79 25/86/80
s 3
f 26/65/81 35/66/82 36/67/83 28/68/84
s 4
f 33/71/85 34/72/86 25/73/87 27/74/88
f 31/75/89 34/72/86 33/71/85 29/76/90
s 2
f 31/87/91 32/88/92 35/84/78 34/83/77
s 3
f 36/67/83 35/66/82 32/69/93 30/70/94
s 1
f 33/80/72 36/79/71 30/81/95 29/82/96
